<svg width="50" height="50" viewBox="0 0 50 50" fill="none" xmlns="http://www.w3.org/2000/svg">
<path d="M31.7586 0.862076H33.6896V2.79311H31.7586V0.862076Z" fill="#0E1C3F"/>
<path d="M27.8966 0.862076H29.8276V2.79311H27.8966V0.862076Z" fill="#0E1C3F"/>
<path d="M25.9655 0.862076H27.8965V2.79311H25.9655V0.862076Z" fill="#0E1C3F"/>
<path d="M24.0345 0.862076H25.9655V2.79311H24.0345V0.862076Z" fill="#0E1C3F"/>
<path d="M20.1724 0.862076H22.1035V2.79311H20.1724V0.862076Z" fill="#0E1C3F"/>
<path d="M18.2414 0.862076H20.1724V2.79311H18.2414V0.862076Z" fill="#0E1C3F"/>
<path d="M16.3104 0.862076H18.2414V2.79311H16.3104V0.862076Z" fill="#0E1C3F"/>
<path d="M27.8966 2.79311H29.8276V4.72414H27.8966V2.79311Z" fill="#0E1C3F"/>
<path d="M25.9655 2.79311H27.8965V4.72414H25.9655V2.79311Z" fill="#0E1C3F"/>
<path d="M22.1034 2.79311H24.0345V4.72414H22.1034V2.79311Z" fill="#0E1C3F"/>
<path d="M20.1724 2.79311H22.1035V4.72414H20.1724V2.79311Z" fill="#0E1C3F"/>
<path d="M16.3104 2.79311H18.2414V4.72414H16.3104V2.79311Z" fill="#0E1C3F"/>
<path d="M31.7586 4.72415H33.6896V6.65519H31.7586V4.72415Z" fill="#0E1C3F"/>
<path d="M29.8276 4.72415H31.7586V6.65519H29.8276V4.72415Z" fill="#0E1C3F"/>
<path d="M27.8966 4.72415H29.8276V6.65519H27.8966V4.72415Z" fill="#0E1C3F"/>
<path d="M25.9655 4.72415H27.8965V6.65519H25.9655V4.72415Z" fill="#0E1C3F"/>
<path d="M24.0345 4.72415H25.9655V6.65519H24.0345V4.72415Z" fill="#0E1C3F"/>
<path d="M20.1724 4.72415H22.1035V6.65519H20.1724V4.72415Z" fill="#0E1C3F"/>
<path d="M18.2414 4.72415H20.1724V6.65519H18.2414V4.72415Z" fill="#0E1C3F"/>
<path d="M29.8276 6.65518H31.7586V8.58621H29.8276V6.65518Z" fill="#0E1C3F"/>
<path d="M27.8966 6.65518H29.8276V8.58621H27.8966V6.65518Z" fill="#0E1C3F"/>
<path d="M24.0345 6.65518H25.9655V8.58621H24.0345V6.65518Z" fill="#0E1C3F"/>
<path d="M20.1724 6.65518H22.1035V8.58621H20.1724V6.65518Z" fill="#0E1C3F"/>
<path d="M18.2414 6.65518H20.1724V8.58621H18.2414V6.65518Z" fill="#0E1C3F"/>
<path d="M29.8276 8.58621H31.7586V10.5173H29.8276V8.58621Z" fill="#0E1C3F"/>
<path d="M25.9655 8.58621H27.8965V10.5173H25.9655V8.58621Z" fill="#0E1C3F"/>
<path d="M22.1034 8.58621H24.0345V10.5173H22.1034V8.58621Z" fill="#0E1C3F"/>
<path d="M20.1724 8.58621H22.1035V10.5173H20.1724V8.58621Z" fill="#0E1C3F"/>
<path d="M31.7586 10.5172H33.6896V12.4483H31.7586V10.5172Z" fill="#0E1C3F"/>
<path d="M29.8276 10.5172H31.7586V12.4483H29.8276V10.5172Z" fill="#0E1C3F"/>
<path d="M27.8966 10.5172H29.8276V12.4483H27.8966V10.5172Z" fill="#0E1C3F"/>
<path d="M16.3104 10.5172H18.2414V12.4483H16.3104V10.5172Z" fill="#0E1C3F"/>
<path d="M31.7586 12.4483H33.6896V14.3793H31.7586V12.4483Z" fill="#0E1C3F"/>
<path d="M27.8966 12.4483H29.8276V14.3793H27.8966V12.4483Z" fill="#0E1C3F"/>
<path d="M24.0345 12.4483H25.9655V14.3793H24.0345V12.4483Z" fill="#0E1C3F"/>
<path d="M20.1724 12.4483H22.1035V14.3793H20.1724V12.4483Z" fill="#0E1C3F"/>
<path d="M16.3104 12.4483H18.2414V14.3793H16.3104V12.4483Z" fill="#0E1C3F"/>
<path d="M27.8966 14.3793H29.8276V16.3104H27.8966V14.3793Z" fill="#0E1C3F"/>
<path d="M25.9655 14.3793H27.8965V16.3104H25.9655V14.3793Z" fill="#0E1C3F"/>
<path d="M20.1724 14.3793H22.1035V16.3104H20.1724V14.3793Z" fill="#0E1C3F"/>
<path d="M18.2414 14.3793H20.1724V16.3104H18.2414V14.3793Z" fill="#0E1C3F"/>
<path d="M16.3104 14.3793H18.2414V16.3104H16.3104V14.3793Z" fill="#0E1C3F"/>
<path d="M47.2069 16.3103H49.1379V18.2414H47.2069V16.3103Z" fill="#0E1C3F"/>
<path d="M43.3448 16.3103H45.2759V18.2414H43.3448V16.3103Z" fill="#0E1C3F"/>
<path d="M35.6207 16.3103H37.5518V18.2414H35.6207V16.3103Z" fill="#0E1C3F"/>
<path d="M33.6897 16.3103H35.6207V18.2414H33.6897V16.3103Z" fill="#0E1C3F"/>
<path d="M29.8276 16.3103H31.7586V18.2414H29.8276V16.3103Z" fill="#0E1C3F"/>
<path d="M27.8966 16.3103H29.8276V18.2414H27.8966V16.3103Z" fill="#0E1C3F"/>
<path d="M25.9655 16.3103H27.8965V18.2414H25.9655V16.3103Z" fill="#0E1C3F"/>
<path d="M22.1034 16.3103H24.0345V18.2414H22.1034V16.3103Z" fill="#0E1C3F"/>
<path d="M20.1724 16.3103H22.1035V18.2414H20.1724V16.3103Z" fill="#0E1C3F"/>
<path d="M16.3104 16.3103H18.2414V18.2414H16.3104V16.3103Z" fill="#0E1C3F"/>
<path d="M10.5172 16.3103H12.4482V18.2414H10.5172V16.3103Z" fill="#0E1C3F"/>
<path d="M4.72414 16.3103H6.65521V18.2414H4.72414V16.3103Z" fill="#0E1C3F"/>
<path d="M0.862053 16.3103H2.79309V18.2414H0.862053V16.3103Z" fill="#0E1C3F"/>
<path d="M39.4828 18.2414H41.4138V20.1724H39.4828V18.2414Z" fill="#0E1C3F"/>
<path d="M25.9655 18.2414H27.8965V20.1724H25.9655V18.2414Z" fill="#0E1C3F"/>
<path d="M24.0345 18.2414H25.9655V20.1724H24.0345V18.2414Z" fill="#0E1C3F"/>
<path d="M22.1034 18.2414H24.0345V20.1724H22.1034V18.2414Z" fill="#0E1C3F"/>
<path d="M20.1724 18.2414H22.1035V20.1724H20.1724V18.2414Z" fill="#0E1C3F"/>
<path d="M18.2414 18.2414H20.1724V20.1724H18.2414V18.2414Z" fill="#0E1C3F"/>
<path d="M16.3104 18.2414H18.2414V20.1724H16.3104V18.2414Z" fill="#0E1C3F"/>
<path d="M12.4483 18.2414H14.3793V20.1724H12.4483V18.2414Z" fill="#0E1C3F"/>
<path d="M10.5172 18.2414H12.4482V20.1724H10.5172V18.2414Z" fill="#0E1C3F"/>
<path d="M6.65518 18.2414H8.58618V20.1724H6.65518V18.2414Z" fill="#0E1C3F"/>
<path d="M2.79308 18.2414H4.72412V20.1724H2.79308V18.2414Z" fill="#0E1C3F"/>
<path d="M0.862053 18.2414H2.79309V20.1724H0.862053V18.2414Z" fill="#0E1C3F"/>
<path d="M47.2069 20.1724H49.1379V22.1035H47.2069V20.1724Z" fill="#0E1C3F"/>
<path d="M45.2759 20.1724H47.2069V22.1035H45.2759V20.1724Z" fill="#0E1C3F"/>
<path d="M39.4828 20.1724H41.4138V22.1035H39.4828V20.1724Z" fill="#0E1C3F"/>
<path d="M35.6207 20.1724H37.5518V22.1035H35.6207V20.1724Z" fill="#0E1C3F"/>
<path d="M31.7586 20.1724H33.6896V22.1035H31.7586V20.1724Z" fill="#0E1C3F"/>
<path d="M29.8276 20.1724H31.7586V22.1035H29.8276V20.1724Z" fill="#0E1C3F"/>
<path d="M27.8966 20.1724H29.8276V22.1035H27.8966V20.1724Z" fill="#0E1C3F"/>
<path d="M24.0345 20.1724H25.9655V22.1035H24.0345V20.1724Z" fill="#0E1C3F"/>
<path d="M18.2414 20.1724H20.1724V22.1035H18.2414V20.1724Z" fill="#0E1C3F"/>
<path d="M6.65518 20.1724H8.58618V22.1035H6.65518V20.1724Z" fill="#0E1C3F"/>
<path d="M4.72414 20.1724H6.65521V22.1035H4.72414V20.1724Z" fill="#0E1C3F"/>
<path d="M0.862053 20.1724H2.79309V22.1035H0.862053V20.1724Z" fill="#0E1C3F"/>
<path d="M43.3448 22.1035H45.2759V24.0345H43.3448V22.1035Z" fill="#0E1C3F"/>
<path d="M41.4138 22.1035H43.3448V24.0345H41.4138V22.1035Z" fill="#0E1C3F"/>
<path d="M39.4828 22.1035H41.4138V24.0345H39.4828V22.1035Z" fill="#0E1C3F"/>
<path d="M31.7586 22.1035H33.6896V24.0345H31.7586V22.1035Z" fill="#0E1C3F"/>
<path d="M29.8276 22.1035H31.7586V24.0345H29.8276V22.1035Z" fill="#0E1C3F"/>
<path d="M25.9655 22.1035H27.8965V24.0345H25.9655V22.1035Z" fill="#0E1C3F"/>
<path d="M22.1034 22.1035H24.0345V24.0345H22.1034V22.1035Z" fill="#0E1C3F"/>
<path d="M18.2414 22.1035H20.1724V24.0345H18.2414V22.1035Z" fill="#0E1C3F"/>
<path d="M14.3793 22.1035H16.3104V24.0345H14.3793V22.1035Z" fill="#0E1C3F"/>
<path d="M12.4483 22.1035H14.3793V24.0345H12.4483V22.1035Z" fill="#0E1C3F"/>
<path d="M10.5172 22.1035H12.4482V24.0345H10.5172V22.1035Z" fill="#0E1C3F"/>
<path d="M8.58624 22.1035H10.5173V24.0345H8.58624V22.1035Z" fill="#0E1C3F"/>
<path d="M6.65518 22.1035H8.58618V24.0345H6.65518V22.1035Z" fill="#0E1C3F"/>
<path d="M47.2069 24.0345H49.1379V25.9655H47.2069V24.0345Z" fill="#0E1C3F"/>
<path d="M41.4138 24.0345H43.3448V25.9655H41.4138V24.0345Z" fill="#0E1C3F"/>
<path d="M35.6207 24.0345H37.5518V25.9655H35.6207V24.0345Z" fill="#0E1C3F"/>
<path d="M33.6897 24.0345H35.6207V25.9655H33.6897V24.0345Z" fill="#0E1C3F"/>
<path d="M27.8966 24.0345H29.8276V25.9655H27.8966V24.0345Z" fill="#0E1C3F"/>
<path d="M24.0345 24.0345H25.9655V25.9655H24.0345V24.0345Z" fill="#0E1C3F"/>
<path d="M22.1034 24.0345H24.0345V25.9655H22.1034V24.0345Z" fill="#0E1C3F"/>
<path d="M18.2414 24.0345H20.1724V25.9655H18.2414V24.0345Z" fill="#0E1C3F"/>
<path d="M16.3104 24.0345H18.2414V25.9655H16.3104V24.0345Z" fill="#0E1C3F"/>
<path d="M12.4483 24.0345H14.3793V25.9655H12.4483V24.0345Z" fill="#0E1C3F"/>
<path d="M10.5172 24.0345H12.4482V25.9655H10.5172V24.0345Z" fill="#0E1C3F"/>
<path d="M0.862053 24.0345H2.79309V25.9655H0.862053V24.0345Z" fill="#0E1C3F"/>
<path d="M43.3448 25.9655H45.2759V27.8966H43.3448V25.9655Z" fill="#0E1C3F"/>
<path d="M27.8966 25.9655H29.8276V27.8966H27.8966V25.9655Z" fill="#0E1C3F"/>
<path d="M24.0345 25.9655H25.9655V27.8966H24.0345V25.9655Z" fill="#0E1C3F"/>
<path d="M18.2414 25.9655H20.1724V27.8966H18.2414V25.9655Z" fill="#0E1C3F"/>
<path d="M16.3104 25.9655H18.2414V27.8966H16.3104V25.9655Z" fill="#0E1C3F"/>
<path d="M12.4483 25.9655H14.3793V27.8966H12.4483V25.9655Z" fill="#0E1C3F"/>
<path d="M10.5172 25.9655H12.4482V27.8966H10.5172V25.9655Z" fill="#0E1C3F"/>
<path d="M2.79308 25.9655H4.72412V27.8966H2.79308V25.9655Z" fill="#0E1C3F"/>
<path d="M0.862053 25.9655H2.79309V27.8966H0.862053V25.9655Z" fill="#0E1C3F"/>
<path d="M47.2069 27.8966H49.1379V29.8276H47.2069V27.8966Z" fill="#0E1C3F"/>
<path d="M45.2759 27.8966H47.2069V29.8276H45.2759V27.8966Z" fill="#0E1C3F"/>
<path d="M43.3448 27.8966H45.2759V29.8276H43.3448V27.8966Z" fill="#0E1C3F"/>
<path d="M41.4138 27.8966H43.3448V29.8276H41.4138V27.8966Z" fill="#0E1C3F"/>
<path d="M39.4828 27.8966H41.4138V29.8276H39.4828V27.8966Z" fill="#0E1C3F"/>
<path d="M35.6207 27.8966H37.5518V29.8276H35.6207V27.8966Z" fill="#0E1C3F"/>
<path d="M31.7586 27.8966H33.6896V29.8276H31.7586V27.8966Z" fill="#0E1C3F"/>
<path d="M29.8276 27.8966H31.7586V29.8276H29.8276V27.8966Z" fill="#0E1C3F"/>
<path d="M24.0345 27.8966H25.9655V29.8276H24.0345V27.8966Z" fill="#0E1C3F"/>
<path d="M22.1034 27.8966H24.0345V29.8276H22.1034V27.8966Z" fill="#0E1C3F"/>
<path d="M20.1724 27.8966H22.1035V29.8276H20.1724V27.8966Z" fill="#0E1C3F"/>
<path d="M18.2414 27.8966H20.1724V29.8276H18.2414V27.8966Z" fill="#0E1C3F"/>
<path d="M16.3104 27.8966H18.2414V29.8276H16.3104V27.8966Z" fill="#0E1C3F"/>
<path d="M12.4483 27.8966H14.3793V29.8276H12.4483V27.8966Z" fill="#0E1C3F"/>
<path d="M6.65518 27.8966H8.58618V29.8276H6.65518V27.8966Z" fill="#0E1C3F"/>
<path d="M4.72414 27.8966H6.65521V29.8276H4.72414V27.8966Z" fill="#0E1C3F"/>
<path d="M0.862053 27.8966H2.79309V29.8276H0.862053V27.8966Z" fill="#0E1C3F"/>
<path d="M41.4138 29.8276H43.3448V31.7586H41.4138V29.8276Z" fill="#0E1C3F"/>
<path d="M39.4828 29.8276H41.4138V31.7586H39.4828V29.8276Z" fill="#0E1C3F"/>
<path d="M33.6897 29.8276H35.6207V31.7586H33.6897V29.8276Z" fill="#0E1C3F"/>
<path d="M31.7586 29.8276H33.6896V31.7586H31.7586V29.8276Z" fill="#0E1C3F"/>
<path d="M25.9655 29.8276H27.8965V31.7586H25.9655V29.8276Z" fill="#0E1C3F"/>
<path d="M24.0345 29.8276H25.9655V31.7586H24.0345V29.8276Z" fill="#0E1C3F"/>
<path d="M20.1724 29.8276H22.1035V31.7586H20.1724V29.8276Z" fill="#0E1C3F"/>
<path d="M18.2414 29.8276H20.1724V31.7586H18.2414V29.8276Z" fill="#0E1C3F"/>
<path d="M16.3104 29.8276H18.2414V31.7586H16.3104V29.8276Z" fill="#0E1C3F"/>
<path d="M14.3793 29.8276H16.3104V31.7586H14.3793V29.8276Z" fill="#0E1C3F"/>
<path d="M12.4483 29.8276H14.3793V31.7586H12.4483V29.8276Z" fill="#0E1C3F"/>
<path d="M10.5172 29.8276H12.4482V31.7586H10.5172V29.8276Z" fill="#0E1C3F"/>
<path d="M47.2069 31.7586H49.1379V33.6897H47.2069V31.7586Z" fill="#0E1C3F"/>
<path d="M45.2759 31.7586H47.2069V33.6897H45.2759V31.7586Z" fill="#0E1C3F"/>
<path d="M43.3448 31.7586H45.2759V33.6897H43.3448V31.7586Z" fill="#0E1C3F"/>
<path d="M37.5518 31.7586H39.4828V33.6897H37.5518V31.7586Z" fill="#0E1C3F"/>
<path d="M35.6207 31.7586H37.5518V33.6897H35.6207V31.7586Z" fill="#0E1C3F"/>
<path d="M29.8276 31.7586H31.7586V33.6897H29.8276V31.7586Z" fill="#0E1C3F"/>
<path d="M22.1034 31.7586H24.0345V33.6897H22.1034V31.7586Z" fill="#0E1C3F"/>
<path d="M20.1724 31.7586H22.1035V33.6897H20.1724V31.7586Z" fill="#0E1C3F"/>
<path d="M16.3104 31.7586H18.2414V33.6897H16.3104V31.7586Z" fill="#0E1C3F"/>
<path d="M14.3793 31.7586H16.3104V33.6897H14.3793V31.7586Z" fill="#0E1C3F"/>
<path d="M12.4483 31.7586H14.3793V33.6897H12.4483V31.7586Z" fill="#0E1C3F"/>
<path d="M10.5172 31.7586H12.4482V33.6897H10.5172V31.7586Z" fill="#0E1C3F"/>
<path d="M8.58624 31.7586H10.5173V33.6897H8.58624V31.7586Z" fill="#0E1C3F"/>
<path d="M2.79308 31.7586H4.72412V33.6897H2.79308V31.7586Z" fill="#0E1C3F"/>
<path d="M31.7586 33.6897H33.6896V35.6207H31.7586V33.6897Z" fill="#0E1C3F"/>
<path d="M27.8966 33.6897H29.8276V35.6207H27.8966V33.6897Z" fill="#0E1C3F"/>
<path d="M22.1034 33.6897H24.0345V35.6207H22.1034V33.6897Z" fill="#0E1C3F"/>
<path d="M20.1724 33.6897H22.1035V35.6207H20.1724V33.6897Z" fill="#0E1C3F"/>
<path d="M16.3104 33.6897H18.2414V35.6207H16.3104V33.6897Z" fill="#0E1C3F"/>
<path d="M8.58624 33.6897H10.5173V35.6207H8.58624V33.6897Z" fill="#0E1C3F"/>
<path d="M4.72414 33.6897H6.65521V35.6207H4.72414V33.6897Z" fill="#0E1C3F"/>
<path d="M0.862053 33.6897H2.79309V35.6207H0.862053V33.6897Z" fill="#0E1C3F"/>
<path d="M31.7586 35.6207H33.6896V37.5518H31.7586V35.6207Z" fill="#0E1C3F"/>
<path d="M25.9655 35.6207H27.8965V37.5518H25.9655V35.6207Z" fill="#0E1C3F"/>
<path d="M16.3104 35.6207H18.2414V37.5518H16.3104V35.6207Z" fill="#0E1C3F"/>
<path d="M12.4483 35.6207H14.3793V37.5518H12.4483V35.6207Z" fill="#0E1C3F"/>
<path d="M8.58624 35.6207H10.5173V37.5518H8.58624V35.6207Z" fill="#0E1C3F"/>
<path d="M6.65518 35.6207H8.58618V37.5518H6.65518V35.6207Z" fill="#0E1C3F"/>
<path d="M0.862053 35.6207H2.79309V37.5518H0.862053V35.6207Z" fill="#0E1C3F"/>
<path d="M22.1034 37.5518H24.0345V39.4828H22.1034V37.5518Z" fill="#0E1C3F"/>
<path d="M16.3104 37.5518H18.2414V39.4828H16.3104V37.5518Z" fill="#0E1C3F"/>
<path d="M8.58624 37.5518H10.5173V39.4828H8.58624V37.5518Z" fill="#0E1C3F"/>
<path d="M2.79308 37.5518H4.72412V39.4828H2.79308V37.5518Z" fill="#0E1C3F"/>
<path d="M25.9655 39.4828H27.8965V41.4138H25.9655V39.4828Z" fill="#0E1C3F"/>
<path d="M24.0345 39.4828H25.9655V41.4138H24.0345V39.4828Z" fill="#0E1C3F"/>
<path d="M22.1034 39.4828H24.0345V41.4138H22.1034V39.4828Z" fill="#0E1C3F"/>
<path d="M18.2414 39.4828H20.1724V41.4138H18.2414V39.4828Z" fill="#0E1C3F"/>
<path d="M16.3104 39.4828H18.2414V41.4138H16.3104V39.4828Z" fill="#0E1C3F"/>
<path d="M14.3793 39.4828H16.3104V41.4138H14.3793V39.4828Z" fill="#0E1C3F"/>
<path d="M12.4483 39.4828H14.3793V41.4138H12.4483V39.4828Z" fill="#0E1C3F"/>
<path d="M10.5172 39.4828H12.4482V41.4138H10.5172V39.4828Z" fill="#0E1C3F"/>
<path d="M8.58624 39.4828H10.5173V41.4138H8.58624V39.4828Z" fill="#0E1C3F"/>
<path d="M6.65518 39.4828H8.58618V41.4138H6.65518V39.4828Z" fill="#0E1C3F"/>
<path d="M2.79308 39.4828H4.72412V41.4138H2.79308V39.4828Z" fill="#0E1C3F"/>
<path d="M0.862053 39.4828H2.79309V41.4138H0.862053V39.4828Z" fill="#0E1C3F"/>
<path d="M27.8966 41.4138H29.8276V43.3448H27.8966V41.4138Z" fill="#0E1C3F"/>
<path d="M24.0345 41.4138H25.9655V43.3448H24.0345V41.4138Z" fill="#0E1C3F"/>
<path d="M18.2414 41.4138H20.1724V43.3448H18.2414V41.4138Z" fill="#0E1C3F"/>
<path d="M14.3793 41.4138H16.3104V43.3448H14.3793V41.4138Z" fill="#0E1C3F"/>
<path d="M8.58624 41.4138H10.5173V43.3448H8.58624V41.4138Z" fill="#0E1C3F"/>
<path d="M6.65518 41.4138H8.58618V43.3448H6.65518V41.4138Z" fill="#0E1C3F"/>
<path d="M4.72414 41.4138H6.65521V43.3448H4.72414V41.4138Z" fill="#0E1C3F"/>
<path d="M2.79308 41.4138H4.72412V43.3448H2.79308V41.4138Z" fill="#0E1C3F"/>
<path d="M31.7586 43.3448H33.6896V45.2759H31.7586V43.3448Z" fill="#0E1C3F"/>
<path d="M24.0345 43.3448H25.9655V45.2759H24.0345V43.3448Z" fill="#0E1C3F"/>
<path d="M22.1034 43.3448H24.0345V45.2759H22.1034V43.3448Z" fill="#0E1C3F"/>
<path d="M20.1724 43.3448H22.1035V45.2759H20.1724V43.3448Z" fill="#0E1C3F"/>
<path d="M16.3104 43.3448H18.2414V45.2759H16.3104V43.3448Z" fill="#0E1C3F"/>
<path d="M14.3793 43.3448H16.3104V45.2759H14.3793V43.3448Z" fill="#0E1C3F"/>
<path d="M8.58624 43.3448H10.5173V45.2759H8.58624V43.3448Z" fill="#0E1C3F"/>
<path d="M2.79308 43.3448H4.72412V45.2759H2.79308V43.3448Z" fill="#0E1C3F"/>
<path d="M0.862053 43.3448H2.79309V45.2759H0.862053V43.3448Z" fill="#0E1C3F"/>
<path d="M29.8276 45.2759H31.7586V47.2069H29.8276V45.2759Z" fill="#0E1C3F"/>
<path d="M27.8966 45.2759H29.8276V47.2069H27.8966V45.2759Z" fill="#0E1C3F"/>
<path d="M25.9655 45.2759H27.8965V47.2069H25.9655V45.2759Z" fill="#0E1C3F"/>
<path d="M24.0345 45.2759H25.9655V47.2069H24.0345V45.2759Z" fill="#0E1C3F"/>
<path d="M20.1724 45.2759H22.1035V47.2069H20.1724V45.2759Z" fill="#0E1C3F"/>
<path d="M16.3104 45.2759H18.2414V47.2069H16.3104V45.2759Z" fill="#0E1C3F"/>
<path d="M14.3793 45.2759H16.3104V47.2069H14.3793V45.2759Z" fill="#0E1C3F"/>
<path d="M12.4483 45.2759H14.3793V47.2069H12.4483V45.2759Z" fill="#0E1C3F"/>
<path d="M10.5172 45.2759H12.4482V47.2069H10.5172V45.2759Z" fill="#0E1C3F"/>
<path d="M8.58624 45.2759H10.5173V47.2069H8.58624V45.2759Z" fill="#0E1C3F"/>
<path d="M31.7586 47.2069H33.6896V49.1379H31.7586V47.2069Z" fill="#0E1C3F"/>
<path d="M29.8276 47.2069H31.7586V49.1379H29.8276V47.2069Z" fill="#0E1C3F"/>
<path d="M22.1034 47.2069H24.0345V49.1379H22.1034V47.2069Z" fill="#0E1C3F"/>
<path d="M20.1724 47.2069H22.1035V49.1379H20.1724V47.2069Z" fill="#0E1C3F"/>
<path d="M16.3104 47.2069H18.2414V49.1379H16.3104V47.2069Z" fill="#0E1C3F"/>
<path d="M14.3793 47.2069H16.3104V49.1379H14.3793V47.2069Z" fill="#0E1C3F"/>
<path d="M12.4483 47.2069H14.3793V49.1379H12.4483V47.2069Z" fill="#0E1C3F"/>
<path d="M6.65518 47.2069H8.58618V49.1379H6.65518V47.2069Z" fill="#0E1C3F"/>
<path d="M0.862053 47.2069H2.79309V49.1379H0.862053V47.2069Z" fill="#0E1C3F"/>
<path d="M37.6483 0.862076H47.1104H49.1379V2.88966V12.3517V14.3793H47.1104H37.6483H35.6207V12.3517V2.88966V0.862076H37.6483ZM37.6483 12.3517H47.1104V2.88966H37.6483V12.3517Z" fill="#0E1C3F"/>
<path d="M2.88967 0.862076H12.3517H14.3793V2.88966V12.3517V14.3793H12.3517H2.88967H0.862083V12.3517V2.88966V0.862076H2.88967ZM2.88967 12.3517H12.3517V2.88966H2.88967V12.3517Z" fill="#0E1C3F"/>
<path d="M37.6483 35.6207H47.1104H49.1379V37.6483V47.1104V49.1379H47.1104H37.6483H35.6207V47.1104V37.6483V35.6207H37.6483ZM37.6483 47.1104H47.1104V37.6483H37.6483V47.1104Z" fill="#0E1C3F"/>
<path d="M39.4828 4.72415H45.2759V10.5173H39.4828V4.72415Z" fill="#0E1C3F"/>
<path d="M4.72417 4.72415H10.5173V10.5173H4.72417V4.72415Z" fill="#0E1C3F"/>
<path d="M39.4828 39.4828H45.2759V45.2759H39.4828V39.4828Z" fill="#0E1C3F"/>
</svg>
