<svg width="644" height="186" viewBox="0 0 644 186" fill="none" xmlns="http://www.w3.org/2000/svg">
<path d="M16.142 69H3.452V2.072H16.142V69ZM49.5032 70.316C35.3405 70.316 27.9459 64.7387 27.3192 53.584H38.8812C39.1945 56.592 40.1659 58.7227 41.7952 59.976C43.4872 61.2293 46.1192 61.856 49.6912 61.856C56.0832 61.856 59.2792 59.9133 59.2792 56.028C59.2792 54.2733 58.5899 52.926 57.2112 51.986C55.8325 51.046 53.3572 50.2627 49.7852 49.636L44.2392 48.696C33.6485 46.9413 28.3532 42.0533 28.3532 34.032C28.3532 29.4573 30.1079 25.8853 33.6172 23.316C37.1265 20.684 42.0772 19.368 48.4692 19.368C62.3185 19.368 69.4625 24.8513 69.9012 35.818H58.7152C58.5899 32.9353 57.6812 30.8987 55.9892 29.708C54.2972 28.4547 51.7905 27.828 48.4692 27.828C42.8292 27.828 40.0092 29.708 40.0092 33.468C40.0092 35.0973 40.6359 36.382 41.8892 37.322C43.1425 38.1993 45.2105 38.8887 48.0932 39.39L54.2032 40.33C60.0939 41.3953 64.3552 43.0873 66.9872 45.406C69.6819 47.7247 71.0292 50.952 71.0292 55.088C71.0292 59.976 69.1492 63.736 65.3892 66.368C61.6292 69 56.3339 70.316 49.5032 70.316ZM105.641 20.496V29.52H96.053V55.746C96.053 57.3127 96.4603 58.4093 97.275 59.036C98.1523 59.6627 99.5937 59.976 101.599 59.976H105.641V69C103.072 69.2507 101.004 69.376 99.437 69.376C94.173 69.376 90.319 68.4047 87.875 66.462C85.4937 64.4567 84.303 61.292 84.303 56.968V29.52H76.783V20.496H84.303V6.396H96.053V20.496H105.641ZM142.28 19.744C143.345 19.744 144.316 19.8067 145.194 19.932V30.836H142.186C137.674 30.836 134.196 31.9953 131.752 34.314C129.37 36.57 128.18 39.9227 128.18 44.372V69H116.336V20.496H127.804V29.144C130.498 22.8773 135.324 19.744 142.28 19.744ZM196.116 69H184.272C183.708 67.9973 183.269 66.0233 182.956 63.078C179.697 67.778 174.496 70.128 167.352 70.128C162.025 70.128 157.764 68.8433 154.568 66.274C151.435 63.7047 149.868 60.1327 149.868 55.558C149.868 46.722 156.072 41.6773 168.48 40.424L175.812 39.766C178.256 39.4527 180.011 38.8887 181.076 38.074C182.141 37.1967 182.674 35.912 182.674 34.22C182.674 32.152 181.985 30.648 180.606 29.708C179.29 28.7053 177.034 28.204 173.838 28.204C170.391 28.204 167.916 28.7993 166.412 29.99C164.908 31.118 164.031 33.092 163.78 35.912H152.124C152.813 24.8827 160.083 19.368 173.932 19.368C187.405 19.368 194.142 24.2247 194.142 33.938V59.788C194.142 64.0493 194.8 67.12 196.116 69ZM170.172 61.668C173.869 61.668 176.877 60.6653 179.196 58.66C181.515 56.592 182.674 53.6467 182.674 49.824V45.406C181.546 46.4087 179.697 47.0667 177.128 47.38L170.736 48.132C167.603 48.508 165.347 49.26 163.968 50.388C162.652 51.4533 161.994 53.02 161.994 55.088C161.994 57.156 162.683 58.7853 164.062 59.976C165.503 61.104 167.54 61.668 170.172 61.668ZM243.686 0.755999L232.782 14.292H218.588L207.59 0.755999H218.4L225.638 8.276L232.876 0.755999H243.686ZM229.774 59.788H246.224V69H205.052V61.198L224.228 37.04C225.105 35.9747 226.202 34.6273 227.518 32.998C228.897 31.3687 229.837 30.2407 230.338 29.614C228.834 29.6767 225.513 29.708 220.374 29.708H205.522V20.496H245.096V28.298L225.92 52.456C225.043 53.5213 223.915 54.8687 222.536 56.498C221.22 58.1273 220.311 59.2553 219.81 59.882C221.314 59.8193 224.635 59.788 229.774 59.788ZM268.799 14.198H257.143V3.106H268.799V14.198ZM268.893 69H257.049V20.496H268.893V69ZM28.926 185.504C19.8393 185.504 12.7893 183.467 7.776 179.394C2.82533 175.321 0.318667 169.493 0.256 161.91H12.758C12.8207 166.673 14.2307 170.088 16.988 172.156C19.808 174.224 23.9127 175.258 29.302 175.258C33.6887 175.258 37.0413 174.443 39.36 172.814C41.6787 171.122 42.838 168.709 42.838 165.576C42.838 162.944 41.8353 160.939 39.83 159.56C37.8873 158.181 34.3153 156.959 29.114 155.894L23.474 154.766C9.12333 152.071 1.948 145.303 1.948 134.462C1.948 128.697 4.14133 124.122 8.528 120.738C12.9147 117.291 18.9933 115.568 26.764 115.568C35.6 115.568 42.274 117.448 46.786 121.208C51.3607 124.968 53.7733 130.232 54.024 137H41.71C41.4593 133.177 40.1747 130.357 37.856 128.54C35.6 126.723 31.9653 125.814 26.952 125.814C23.0667 125.814 20.09 126.535 18.022 127.976C15.954 129.417 14.92 131.454 14.92 134.086C14.92 136.781 15.86 138.849 17.74 140.29C19.6827 141.731 23.098 142.953 27.986 143.956L33.814 145.084C41.6473 146.651 47.2873 149.001 50.734 152.134C54.2433 155.205 55.998 159.466 55.998 164.918C55.998 171.435 53.6167 176.511 48.854 180.146C44.0913 183.718 37.4487 185.504 28.926 185.504ZM90.7736 135.496V144.52H81.1856V170.746C81.1856 172.313 81.5929 173.409 82.4076 174.036C83.2849 174.663 84.7263 174.976 86.7316 174.976H90.7736V184C88.2043 184.251 86.1363 184.376 84.5696 184.376C79.3056 184.376 75.4516 183.405 73.0076 181.462C70.6263 179.457 69.4356 176.292 69.4356 171.968V144.52H61.9156V135.496H69.4356V121.396H81.1856V135.496H90.7736ZM144.809 184H132.965C132.401 182.997 131.962 181.023 131.649 178.078C128.39 182.778 123.189 185.128 116.045 185.128C110.718 185.128 106.457 183.843 103.261 181.274C100.128 178.705 98.5609 175.133 98.5609 170.558C98.5609 161.722 104.765 156.677 117.173 155.424L124.505 154.766C126.949 154.453 128.704 153.889 129.769 153.074C130.834 152.197 131.367 150.912 131.367 149.22C131.367 147.152 130.678 145.648 129.299 144.708C127.983 143.705 125.727 143.204 122.531 143.204C119.084 143.204 116.609 143.799 115.105 144.99C113.601 146.118 112.724 148.092 112.473 150.912H100.817C101.506 139.883 108.776 134.368 122.625 134.368C136.098 134.368 142.835 139.225 142.835 148.938V174.788C142.835 179.049 143.493 182.12 144.809 184ZM118.865 176.668C122.562 176.668 125.57 175.665 127.889 173.66C130.208 171.592 131.367 168.647 131.367 164.824V160.406C130.239 161.409 128.39 162.067 125.821 162.38L119.429 163.132C116.296 163.508 114.04 164.26 112.661 165.388C111.345 166.453 110.687 168.02 110.687 170.088C110.687 172.156 111.376 173.785 112.755 174.976C114.196 176.104 116.233 176.668 118.865 176.668ZM181.569 134.744C182.634 134.744 183.605 134.807 184.483 134.932V145.836H181.475C176.963 145.836 173.485 146.995 171.041 149.314C168.659 151.57 167.469 154.923 167.469 159.372V184H155.625V135.496H167.093V144.144C169.787 137.877 174.613 134.744 181.569 134.744ZM206.385 129.198H194.729V118.106H206.385V129.198ZM206.479 184H194.635V135.496H206.479V184ZM276.543 158.15V147.904H306.435V184H297.223L295.437 175.164C290.611 182.057 283.342 185.504 273.629 185.504C263.978 185.504 256.239 182.308 250.411 175.916C244.583 169.524 241.669 161.064 241.669 150.536C241.669 140.008 244.645 131.517 250.599 125.062C256.552 118.733 264.605 115.568 274.757 115.568C283.154 115.568 290.141 117.699 295.719 121.96C301.233 126.221 304.555 132.018 305.683 139.35H292.617C291.677 135.402 289.609 132.3 286.413 130.044C283.279 127.788 279.425 126.66 274.851 126.66C268.709 126.66 263.853 128.791 260.281 133.052C256.709 137.313 254.923 143.141 254.923 150.536C254.923 157.931 256.74 163.759 260.375 168.02C264.009 172.281 268.991 174.412 275.321 174.412C280.334 174.412 284.627 172.908 288.199 169.9C291.771 166.892 293.713 162.975 294.027 158.15H276.543ZM345.687 134.744C346.752 134.744 347.724 134.807 348.601 134.932V145.836H345.593C341.081 145.836 337.603 146.995 335.159 149.314C332.778 151.57 331.587 154.923 331.587 159.372V184H319.743V135.496H331.211V144.144C333.906 137.877 338.731 134.744 345.687 134.744ZM399.523 184H387.679C387.115 182.997 386.677 181.023 386.363 178.078C383.105 182.778 377.903 185.128 370.759 185.128C365.433 185.128 361.171 183.843 357.975 181.274C354.842 178.705 353.275 175.133 353.275 170.558C353.275 161.722 359.479 156.677 371.887 155.424L379.219 154.766C381.663 154.453 383.418 153.889 384.483 153.074C385.549 152.197 386.081 150.912 386.081 149.22C386.081 147.152 385.392 145.648 384.013 144.708C382.697 143.705 380.441 143.204 377.245 143.204C373.799 143.204 371.323 143.799 369.819 144.99C368.315 146.118 367.438 148.092 367.187 150.912H355.531C356.221 139.883 363.49 134.368 377.339 134.368C390.813 134.368 397.549 139.225 397.549 148.938V174.788C397.549 179.049 398.207 182.12 399.523 184ZM373.579 176.668C377.277 176.668 380.285 175.665 382.603 173.66C384.922 171.592 386.081 168.647 386.081 164.824V160.406C384.953 161.409 383.105 162.067 380.535 162.38L374.143 163.132C371.01 163.508 368.754 164.26 367.375 165.388C366.059 166.453 365.401 168.02 365.401 170.088C365.401 172.156 366.091 173.785 367.469 174.976C368.911 176.104 370.947 176.668 373.579 176.668ZM444.472 141.794V117.072H456.316V184H444.848V177.232C441.276 182.496 436.169 185.128 429.526 185.128C422.821 185.128 417.525 182.809 413.64 178.172C409.692 173.535 407.718 167.393 407.718 159.748C407.718 151.977 409.692 145.805 413.64 141.23C417.463 136.655 422.758 134.368 429.526 134.368C436.043 134.368 441.025 136.843 444.472 141.794ZM419.844 160.124C419.844 165.137 420.941 168.929 423.134 171.498C425.327 174.067 428.367 175.352 432.252 175.352C436.137 175.352 439.208 174.005 441.464 171.31C443.657 168.615 444.754 164.761 444.754 159.748C444.754 154.735 443.657 150.881 441.464 148.186C439.271 145.491 436.2 144.144 432.252 144.144C428.429 144.144 425.39 145.554 423.134 148.374C420.941 151.194 419.844 155.111 419.844 160.124ZM537.299 148.75C540.997 150.066 543.848 152.165 545.853 155.048C547.921 157.931 548.955 161.189 548.955 164.824C548.955 170.903 546.95 175.634 542.939 179.018C538.991 182.339 533.226 184 525.643 184H494.341V117.072H524.609C531.628 117.072 536.986 118.67 540.683 121.866C544.381 125.062 546.229 129.229 546.229 134.368C546.229 140.948 543.253 145.742 537.299 148.75ZM523.669 127.506H507.031V144.99H523.669C526.865 144.99 529.309 144.207 531.001 142.64C532.756 141.011 533.633 138.786 533.633 135.966C533.633 133.334 532.756 131.266 531.001 129.762C529.247 128.258 526.803 127.506 523.669 127.506ZM507.031 173.472H524.985C528.557 173.472 531.283 172.689 533.163 171.122C535.043 169.493 535.983 167.205 535.983 164.26C535.983 158.056 532.317 154.954 524.985 154.954H507.031V173.472ZM603.665 184H591.821C591.257 182.997 590.818 181.023 590.505 178.078C587.246 182.778 582.045 185.128 574.901 185.128C569.574 185.128 565.313 183.843 562.117 181.274C558.983 178.705 557.417 175.133 557.417 170.558C557.417 161.722 563.621 156.677 576.029 155.424L583.361 154.766C585.805 154.453 587.559 153.889 588.625 153.074C589.69 152.197 590.223 150.912 590.223 149.22C590.223 147.152 589.533 145.648 588.155 144.708C586.839 143.705 584.583 143.204 581.387 143.204C577.94 143.204 575.465 143.799 573.961 144.99C572.457 146.118 571.579 148.092 571.329 150.912H559.673C560.362 139.883 567.631 134.368 581.481 134.368C594.954 134.368 601.691 139.225 601.691 148.938V174.788C601.691 179.049 602.349 182.12 603.665 184ZM577.721 176.668C581.418 176.668 584.426 175.665 586.745 173.66C589.063 171.592 590.223 168.647 590.223 164.824V160.406C589.095 161.409 587.246 162.067 584.677 162.38L578.285 163.132C575.151 163.508 572.895 164.26 571.517 165.388C570.201 166.453 569.543 168.02 569.543 170.088C569.543 172.156 570.232 173.785 571.611 174.976C573.052 176.104 575.089 176.668 577.721 176.668ZM640.425 134.744C641.49 134.744 642.461 134.807 643.339 134.932V145.836H640.331C635.819 145.836 632.341 146.995 629.897 149.314C627.515 151.57 626.325 154.923 626.325 159.372V184H614.481V135.496H625.949V144.144C628.643 137.877 633.469 134.744 640.425 134.744Z" fill="white"/>
</svg>
